# xmcd CD database file
#
# Track frame offsets:
#	150
#	26897
#	66215
#	98542
#	122292
#	145410
#	164792
#	197152
#	219505
#	241325
#
# Disc length: 3492 seconds
#
# Revision: 0
# Processed by: cddbd v1.5.2PL0 Copyright (c) Steve Scherf et al.
# Submitted via: CDex 1.51
#
DISCID=900da20a
DTITLE=Eduardo Ponti - Tatá
DYEAR=2002
DGENRE=Blues
TTITLE0=Forever Friday
TTITLE1=Blues for Juan
TTITLE2=Guiding Star
TTITLE3=Veludo Vermelho
TTITLE4=Tail Groove
TTITLE5=Low Cut
TTITLE6=Pancadaria Nervosa
TTITLE7=Fun at Night
TTITLE8=Limpando a Área
TTITLE9=Just Kane
EXTD=YEAR: 2002
EXTT0=
EXTT1=
EXTT2=
EXTT3=
EXTT4=
EXTT5=
EXTT6=
EXTT7=
EXTT8=
EXTT9=
PLAYORDER=
